<svg width="17" height="20" viewBox="0 0 17 20" fill="none" xmlns="http://www.w3.org/2000/svg">
<path d="M13.6007 10.626C13.5747 8.0916 15.6671 6.87873 15.7599 6.81787C14.5847 5.10073 12.7559 4.86453 12.1024 4.83845C10.5476 4.67905 9.06517 5.75426 8.27398 5.75426C7.48569 5.75426 6.26558 4.86018 4.97446 4.88337C3.27616 4.90945 1.71261 5.87163 0.837379 7.39025C-0.926133 10.4507 0.385271 14.9834 2.10386 17.4685C2.94432 18.6828 3.94707 20.0464 5.26138 19.9986C6.52786 19.9479 7.00605 19.1784 8.53771 19.1784C10.0694 19.1784 10.4997 19.9986 11.8387 19.9739C13.2023 19.9479 14.0644 18.735 14.8977 17.5178C15.8627 16.1078 16.2598 14.7414 16.2844 14.6733C16.2525 14.6559 13.6283 13.6517 13.6007 10.626Z" fill="white"/>
<path d="M11.0822 3.19374C11.7792 2.34893 12.2516 1.17229 12.1227 0C11.1156 0.0405738 9.89981 0.668019 9.17673 1.51427C8.52899 2.26344 7.96531 3.45892 8.11601 4.60803C9.23759 4.69642 10.3852 4.0371 11.0822 3.19374Z" fill="white"/>
</svg>
