<svg width="174" height="47" viewBox="0 0 174 47" fill="none" xmlns="http://www.w3.org/2000/svg">
<path d="M28.3426 22.1617C28.2969 17.0855 32.5064 14.6159 32.6989 14.5009C30.3148 11.0312 26.6197 10.5571 25.3212 10.5193C22.2177 10.1933 19.2073 12.3731 17.6264 12.3731C16.0139 12.3731 13.5794 10.5508 10.9555 10.6044C7.57906 10.6563 4.42035 12.6078 2.68795 15.6381C-0.887292 21.8168 1.77915 30.8967 5.20451 35.891C6.91797 38.337 8.92017 41.068 11.5409 40.9719C14.1048 40.8664 15.0625 39.3402 18.1565 39.3402C21.2221 39.3402 22.1214 40.9719 24.7942 40.9105C27.5458 40.8664 29.2782 38.4535 30.9317 35.9855C32.9119 33.182 33.7071 30.421 33.7386 30.2793C33.6739 30.2572 28.3947 28.2459 28.3426 22.1617Z" fill="white"/>
<path d="M23.2983 7.23357C24.6773 5.51209 25.6208 3.17007 25.3589 0.793396C23.363 0.881596 20.8669 2.17152 19.4296 3.8552C18.1579 5.33885 17.0219 7.77065 17.3154 10.0575C19.5574 10.2245 21.8594 8.92827 23.2983 7.23357Z" fill="white"/>
<path d="M65.6262 40.6209H62.0431L60.0803 34.4642H53.258L51.3884 40.6209H47.8999L54.6591 19.6608H58.8339L65.6262 40.6209ZM59.4887 31.8812L57.7137 26.4081C57.5259 25.8489 57.1741 24.5322 56.655 22.4595H56.5919C56.3852 23.351 56.0523 24.6677 55.5947 26.4081L53.8513 31.8812H59.4887Z" fill="white"/>
<path d="M83.0105 32.8777C83.0105 35.4481 82.3147 37.4799 80.9231 38.9714C79.6767 40.2991 78.1289 40.9622 76.2813 40.9622C74.287 40.9622 72.8544 40.2472 71.9819 38.8171H71.9188V46.7787H68.5549V30.4822C68.5549 28.8662 68.5123 27.2077 68.4303 25.5067H71.3886L71.5764 27.9023H71.6395C72.7613 26.0974 74.4637 25.1965 76.7483 25.1965C78.5344 25.1965 80.0254 25.9005 81.2182 27.3101C82.4141 28.7213 83.0105 30.5767 83.0105 32.8777ZM79.5836 33.0006C79.5836 31.5295 79.2523 30.3168 78.5865 29.3623C77.8591 28.3669 76.8824 27.8692 75.6581 27.8692C74.8282 27.8692 74.074 28.1464 73.4003 28.693C72.725 29.2442 72.2832 29.964 72.0765 30.8554C71.9724 31.2712 71.9203 31.6114 71.9203 31.8792V34.3992C71.9203 35.4985 72.258 36.4262 72.9333 37.1838C73.6086 37.9414 74.4858 38.3194 75.565 38.3194C76.832 38.3194 77.8181 37.8311 78.5233 36.8578C79.2302 35.8828 79.5836 34.5976 79.5836 33.0006Z" fill="white"/>
<path d="M100.423 32.8777C100.423 35.4481 99.7276 37.4799 98.3344 38.9714C97.0895 40.2991 95.5417 40.9622 93.6942 40.9622C91.6999 40.9622 90.2672 40.2472 89.3963 38.8171H89.3332V46.7787H85.9694V30.4822C85.9694 28.8662 85.9268 27.2077 85.8447 25.5067H88.8031L88.9908 27.9023H89.0539C90.1741 26.0974 91.8766 25.1965 94.1628 25.1965C95.9472 25.1965 97.4382 25.9005 98.6342 27.3101C99.8254 28.7213 100.423 30.5767 100.423 32.8777ZM96.9965 33.0006C96.9965 31.5295 96.6635 30.3168 95.9977 29.3623C95.2704 28.3669 94.2969 27.8692 93.071 27.8692C92.2395 27.8692 91.4869 28.1464 90.8116 28.693C90.1363 29.2442 89.6961 29.964 89.4894 30.8554C89.3868 31.2712 89.3332 31.6114 89.3332 31.8792V34.3992C89.3332 35.4985 89.6708 36.4262 90.343 37.1838C91.0183 37.9398 91.8955 38.3194 92.9779 38.3194C94.2448 38.3194 95.2309 37.8311 95.9362 36.8578C96.643 35.8828 96.9965 34.5976 96.9965 33.0006Z" fill="white"/>
<path d="M119.888 34.7428C119.888 36.5257 119.268 37.9763 118.023 39.0961C116.655 40.3199 114.751 40.931 112.304 40.931C110.044 40.931 108.233 40.4963 106.862 39.6253L107.641 36.8265C109.118 37.718 110.738 38.1653 112.504 38.1653C113.771 38.1653 114.757 37.8786 115.465 37.3085C116.171 36.7383 116.523 35.9729 116.523 35.0184C116.523 34.1679 116.232 33.4513 115.65 32.8701C115.071 32.2889 114.104 31.7487 112.753 31.2494C109.077 29.8808 107.24 27.8758 107.24 25.2392C107.24 23.5162 107.884 22.1034 109.173 21.0041C110.458 19.9031 112.171 19.3535 114.314 19.3535C116.224 19.3535 117.812 19.6858 119.079 20.3489L118.238 23.0862C117.054 22.4436 115.716 22.1223 114.219 22.1223C113.036 22.1223 112.111 22.4137 111.448 22.9933C110.888 23.5115 110.607 24.143 110.607 24.8912C110.607 25.7196 110.928 26.4047 111.571 26.9434C112.132 27.4411 113.149 27.9797 114.626 28.5609C116.433 29.287 117.76 30.1359 118.613 31.1093C119.464 32.0795 119.888 33.2938 119.888 34.7428Z" fill="white"/>
<path d="M131.017 28.0261H127.31V35.364C127.31 37.2304 127.963 38.1628 129.272 38.1628C129.873 38.1628 130.372 38.1108 130.766 38.0069L130.86 40.5568C130.197 40.8041 129.324 40.9285 128.244 40.9285C126.915 40.9285 125.877 40.5237 125.127 39.7158C124.381 38.9062 124.006 37.5486 124.006 35.6412V28.023H121.797V25.503H124.006V22.7357L127.31 21.7403V25.503H131.017V28.0261Z" fill="white"/>
<path d="M147.747 32.9397C147.747 35.2629 147.081 37.1702 145.752 38.6617C144.359 40.1973 142.51 40.9628 140.205 40.9628C137.983 40.9628 136.215 40.2273 134.896 38.7562C133.576 37.2852 132.917 35.4282 132.917 33.1902C132.917 30.8481 133.595 28.9298 134.957 27.4383C136.316 25.9452 138.149 25.1986 140.454 25.1986C142.676 25.1986 144.463 25.9341 145.812 27.4068C147.103 28.8353 147.747 30.6796 147.747 32.9397ZM144.256 33.0484C144.256 31.6545 143.958 30.4591 143.354 29.4621C142.649 28.2557 141.641 27.654 140.334 27.654C138.982 27.654 137.955 28.2573 137.25 29.4621C136.645 30.4607 136.347 31.675 136.347 33.1114C136.347 34.5053 136.645 35.7007 137.25 36.6961C137.977 37.9026 138.993 38.5042 140.304 38.5042C141.588 38.5042 142.597 37.89 143.324 36.6646C143.944 35.6487 144.256 34.4407 144.256 33.0484Z" fill="white"/>
<path d="M158.677 28.4599C158.344 28.3984 157.989 28.3669 157.617 28.3669C156.433 28.3669 155.518 28.8127 154.875 29.7057C154.315 30.4932 154.034 31.4886 154.034 32.6903V40.6204H150.671L150.703 30.2664C150.703 28.5244 150.66 26.9384 150.577 25.5083H153.507L153.63 28.4H153.723C154.078 27.4062 154.638 26.6061 155.405 26.006C156.154 25.4658 156.964 25.1965 157.836 25.1965C158.147 25.1965 158.428 25.2185 158.677 25.2579V28.4599Z" fill="white"/>
<path d="M173.721 32.3489C173.721 32.9505 173.681 33.4577 173.598 33.8719H163.506C163.546 35.365 164.033 36.5069 164.971 37.2944C165.821 37.9984 166.921 38.3512 168.271 38.3512C169.765 38.3512 171.129 38.1134 172.355 37.6362L172.882 39.9672C171.449 40.5909 169.758 40.9011 167.806 40.9011C165.458 40.9011 163.615 40.2113 162.274 38.8332C160.936 37.455 160.266 35.6044 160.266 33.2829C160.266 31.0038 160.889 29.106 162.137 27.5924C163.443 25.9764 165.209 25.1685 167.43 25.1685C169.612 25.1685 171.264 25.9764 172.386 27.5924C173.274 28.876 173.721 30.4636 173.721 32.3489ZM170.513 31.4779C170.535 30.4825 170.316 29.6226 169.86 28.8965C169.278 27.9625 168.383 27.4963 167.179 27.4963C166.08 27.4963 165.185 27.9515 164.502 28.865C163.942 29.5911 163.609 30.462 163.506 31.4763H170.513V31.4779Z" fill="white"/>
<path d="M58.376 6.76554C58.376 8.61931 57.819 10.0148 56.7067 10.9519C55.6764 11.8166 54.2122 12.2497 52.3157 12.2497C51.3754 12.2497 50.5707 12.2087 49.897 12.1268V1.99801C50.7758 1.85626 51.7225 1.78381 52.7449 1.78381C54.5514 1.78381 55.913 2.17599 56.8313 2.96034C57.86 3.84706 58.376 5.11494 58.376 6.76554ZM56.6325 6.81121C56.6325 5.60949 56.3138 4.68811 55.6764 4.04551C55.039 3.40449 54.1081 3.08319 52.8821 3.08319C52.3615 3.08319 51.9181 3.11784 51.5505 3.19029V10.8905C51.754 10.922 52.1264 10.9361 52.6676 10.9361C53.9329 10.9361 54.9096 10.5849 55.5975 9.88246C56.2854 9.18001 56.6325 8.15626 56.6325 6.81121Z" fill="white"/>
<path d="M67.6235 8.38487C67.6235 9.52675 67.2969 10.4623 66.6437 11.1962C65.9589 11.9507 65.0517 12.3271 63.9188 12.3271C62.827 12.3271 61.9577 11.9664 61.3092 11.2419C60.6623 10.519 60.3389 9.60707 60.3389 8.50772C60.3389 7.35797 60.6718 6.41455 61.3408 5.68217C62.0097 4.9498 62.9091 4.58282 64.0419 4.58282C65.1337 4.58282 66.011 4.9435 66.6752 5.66642C67.3063 6.36887 67.6235 7.27607 67.6235 8.38487ZM65.9084 8.43842C65.9084 7.7533 65.7601 7.16582 65.4651 6.676C65.118 6.0838 64.6241 5.7877 63.982 5.7877C63.3177 5.7877 62.8128 6.0838 62.4657 6.676C62.1691 7.16582 62.0224 7.76275 62.0224 8.46835C62.0224 9.15347 62.1707 9.74095 62.4657 10.2308C62.8239 10.823 63.3224 11.1191 63.9662 11.1191C64.5973 11.1191 65.0927 10.8182 65.4493 10.215C65.7554 9.71575 65.9084 9.12355 65.9084 8.43842Z" fill="white"/>
<path d="M80.0136 4.73334L77.6864 12.1579H76.1718L75.2077 8.93386C74.9632 8.12904 74.7644 7.32894 74.6098 6.53514H74.5798C74.4362 7.35099 74.2374 8.14951 73.9818 8.93386L72.9578 12.1579H71.4258L69.2374 4.73334H70.9367L71.7776 8.26291C71.9812 9.09766 72.1484 9.89304 72.2825 10.6459H72.3125C72.4356 10.0253 72.6391 9.23469 72.9263 8.27866L73.9818 4.73491H75.3292L76.3406 8.20306C76.5851 9.04884 76.7839 9.86311 76.937 10.6475H76.9827C77.0948 9.88359 77.2636 9.06931 77.4876 8.20306L78.3901 4.73491H80.0136V4.73334Z" fill="white"/>
<path d="M88.5869 12.1592H86.9334V7.90671C86.9334 6.59631 86.4348 5.94111 85.4345 5.94111C84.9438 5.94111 84.5478 6.12066 84.2401 6.48134C83.9356 6.84201 83.781 7.26726 83.781 7.75393V12.1576H82.1275V6.85619C82.1275 6.20414 82.1069 5.49696 82.0675 4.73151H83.5206L83.598 5.89229H83.6437C83.8362 5.53161 84.1233 5.23394 84.5004 4.99611C84.9485 4.71891 85.4503 4.57874 85.9993 4.57874C86.6935 4.57874 87.271 4.80239 87.7301 5.25126C88.3013 5.80094 88.5869 6.62151 88.5869 7.71141V12.1592Z" fill="white"/>
<path d="M93.1462 12.1583H91.4943V1.32703H93.1462V12.1583Z" fill="white"/>
<path d="M102.881 8.38487C102.881 9.52675 102.554 10.4623 101.901 11.1962C101.216 11.9507 100.307 12.3271 99.1762 12.3271C98.0828 12.3271 97.2134 11.9664 96.5665 11.2419C95.9196 10.519 95.5962 9.60707 95.5962 8.50772C95.5962 7.35797 95.9291 6.41455 96.5981 5.68217C97.2671 4.9498 98.1664 4.58282 99.2977 4.58282C100.391 4.58282 101.267 4.9435 101.933 5.66642C102.564 6.36887 102.881 7.27607 102.881 8.38487ZM101.164 8.43842C101.164 7.7533 101.016 7.16582 100.721 6.676C100.375 6.0838 99.8799 5.7877 99.2393 5.7877C98.5735 5.7877 98.0686 6.0838 97.723 6.676C97.4264 7.16582 97.2797 7.76275 97.2797 8.46835C97.2797 9.15347 97.428 9.74095 97.723 10.2308C98.0812 10.823 98.5798 11.1191 99.2235 11.1191C99.8546 11.1191 100.348 10.8182 100.705 10.215C101.013 9.71575 101.164 9.12355 101.164 8.43842Z" fill="white"/>
<path d="M110.888 12.1586H109.403L109.28 11.3033H109.234C108.726 11.9853 108.002 12.3271 107.062 12.3271C106.36 12.3271 105.792 12.1019 105.364 11.6546C104.976 11.2482 104.782 10.7426 104.782 10.1426C104.782 9.23537 105.161 8.54395 105.923 8.06515C106.683 7.58635 107.753 7.35167 109.13 7.3627V7.2241C109.13 6.24602 108.616 5.75778 107.586 5.75778C106.852 5.75778 106.205 5.94205 105.646 6.30745L105.31 5.22385C106.001 4.79702 106.855 4.58282 107.862 4.58282C109.806 4.58282 110.781 5.60657 110.781 7.65407V10.3883C110.781 11.1301 110.817 11.7207 110.888 12.1586ZM109.171 9.60707V8.46205C107.347 8.43055 106.435 8.92982 106.435 9.9583C106.435 10.3457 106.54 10.6355 106.753 10.8293C106.966 11.023 107.237 11.1191 107.56 11.1191C107.923 11.1191 108.262 11.0041 108.572 10.7757C108.883 10.5458 109.073 10.2544 109.144 9.89687C109.162 9.81655 109.171 9.7189 109.171 9.60707Z" fill="white"/>
<path d="M120.281 12.1583H118.814L118.737 10.966H118.691C118.222 11.8732 117.424 12.3268 116.302 12.3268C115.406 12.3268 114.66 11.9756 114.068 11.2732C113.476 10.5707 113.181 9.65878 113.181 8.53895C113.181 7.33723 113.502 6.36387 114.145 5.62048C114.769 4.92748 115.532 4.58098 116.441 4.58098C117.44 4.58098 118.139 4.91645 118.536 5.58898H118.568V1.32703H120.223V10.1581C120.223 10.881 120.242 11.5472 120.281 12.1583ZM118.568 9.0272V7.78925C118.568 7.57505 118.552 7.4018 118.522 7.2695C118.429 6.8726 118.229 6.5387 117.924 6.26938C117.616 6.00005 117.246 5.8646 116.818 5.8646C116.201 5.8646 115.718 6.10873 115.363 6.59855C115.011 7.08838 114.833 7.71365 114.833 8.47753C114.833 9.21148 115.002 9.80683 115.341 10.2652C115.699 10.7534 116.182 10.9975 116.786 10.9975C117.329 10.9975 117.763 10.7943 118.093 10.3864C118.412 10.01 118.568 9.5564 118.568 9.0272Z" fill="white"/>
<path d="M134.419 8.38487C134.419 9.52675 134.093 10.4623 133.439 11.1962C132.755 11.9507 131.849 12.3271 130.715 12.3271C129.624 12.3271 128.755 11.9664 128.105 11.2419C127.458 10.519 127.135 9.60707 127.135 8.50772C127.135 7.35797 127.467 6.41455 128.136 5.68217C128.805 4.9498 129.705 4.58282 130.839 4.58282C131.929 4.58282 132.808 4.9435 133.471 5.66642C134.102 6.36887 134.419 7.27607 134.419 8.38487ZM132.706 8.43842C132.706 7.7533 132.557 7.16582 132.262 6.676C131.914 6.0838 131.421 5.7877 130.778 5.7877C130.115 5.7877 129.61 6.0838 129.261 6.676C128.965 7.16582 128.818 7.76275 128.818 8.46835C128.818 9.15347 128.966 9.74095 129.261 10.2308C129.62 10.823 130.118 11.1191 130.762 11.1191C131.393 11.1191 131.89 10.8182 132.247 10.215C132.551 9.71575 132.706 9.12355 132.706 8.43842Z" fill="white"/>
<path d="M143.308 12.1592H141.656V7.90671C141.656 6.59631 141.157 5.94111 140.156 5.94111C139.665 5.94111 139.269 6.12066 138.963 6.48134C138.657 6.84201 138.504 7.26726 138.504 7.75393V12.1576H136.849V6.85619C136.849 6.20414 136.83 5.49696 136.79 4.73151H138.242L138.319 5.89229H138.365C138.559 5.53161 138.846 5.23394 139.222 4.99611C139.671 4.71891 140.171 4.57874 140.722 4.57874C141.415 4.57874 141.992 4.80239 142.451 5.25126C143.024 5.80094 143.308 6.62151 143.308 7.71141V12.1592Z" fill="white"/>
<path d="M154.441 5.9708H152.62V9.57755C152.62 10.4942 152.944 10.9525 153.584 10.9525C153.881 10.9525 154.127 10.9273 154.321 10.8753L154.364 12.1275C154.037 12.2503 153.608 12.3117 153.08 12.3117C152.426 12.3117 151.918 12.1133 151.551 11.7164C151.181 11.3195 150.998 10.6517 150.998 9.71457V5.9708H149.911V4.73443H150.998V3.37363L152.619 2.88538V4.73285H154.44V5.9708H154.441Z" fill="white"/>
<path d="M163.193 12.1583H161.538V7.9373C161.538 6.60643 161.04 5.9402 160.041 5.9402C159.274 5.9402 158.75 6.32608 158.463 7.09783C158.414 7.26005 158.386 7.4585 158.386 7.6916V12.1567H156.734V1.32703H158.386V5.8016H158.417C158.938 4.98733 159.684 4.58098 160.652 4.58098C161.336 4.58098 161.903 4.80463 162.352 5.2535C162.913 5.81262 163.193 6.64423 163.193 7.74358V12.1583Z" fill="white"/>
<path d="M172.224 8.09375C172.224 8.38985 172.202 8.6387 172.163 8.84187H167.204C167.226 9.57582 167.463 10.1349 167.922 10.5224C168.341 10.8689 168.883 11.0421 169.545 11.0421C170.279 11.0421 170.948 10.9256 171.551 10.6909L171.809 11.8375C171.104 12.1431 170.274 12.2958 169.313 12.2958C168.162 12.2958 167.254 11.9572 166.598 11.28C165.938 10.6027 165.612 9.69395 165.612 8.55365C165.612 7.43382 165.916 6.50142 166.53 5.75802C167.171 4.96422 168.037 4.56732 169.13 4.56732C170.2 4.56732 171.013 4.96422 171.562 5.75802C172.005 6.38802 172.224 7.16765 172.224 8.09375ZM170.647 7.66692C170.659 7.1771 170.55 6.755 170.326 6.39905C170.039 5.94072 169.602 5.71077 169.01 5.71077C168.471 5.71077 168.031 5.93442 167.694 6.3833C167.42 6.74082 167.257 7.16765 167.204 7.66692H170.647Z" fill="white"/>
</svg>
