<svg width="160" height="47" viewBox="0 0 160 47" fill="none" xmlns="http://www.w3.org/2000/svg">
<g filter="url(#filter0_d_61_71)">
<path d="M66.8337 16.0764V18.1827V18.8848V21.8102H66.6587H66.3086H65.0247C64.6162 21.8102 64.4412 21.6347 64.3245 21.2251C64.2661 20.9911 64.2078 20.289 64.1494 19.2358H56.2715V25.7302H63.9744V28.9481H56.2715V34.8574C56.7967 34.9744 57.2636 35.0329 57.7887 35.0914C58.3139 35.2085 58.5474 35.501 58.5474 36.0276V37.7828H56.2715H52.1284H49.8525V36.0276C49.8525 35.501 50.086 35.1499 50.6112 35.0914C51.1364 34.9744 51.6032 34.9159 52.1284 34.8574V19.1188C51.6032 19.0018 51.1364 18.9433 50.6112 18.8848C50.086 18.7678 49.8525 18.4752 49.8525 17.9487V16.1934H52.1284H65.3748H66.0751L66.8337 16.0764Z" fill="white"/>
<path d="M76.1702 27.3097V30.4691H68.2924V27.3097H76.1702Z" fill="white"/>
<path d="M99.2214 27.0763C99.2214 30.0017 98.2294 32.9271 96.1287 34.9749C93.9696 37.0811 90.9935 38.0758 88.0174 38.0758H79.9061H77.6302V36.3205C77.6302 35.794 77.8637 35.4429 78.3889 35.3844C78.9141 35.2674 79.3809 35.2089 79.9061 35.1504V19.1192C79.3809 19.0022 78.9141 18.9437 78.3889 18.8852C77.8637 18.7682 77.6302 18.4757 77.6302 17.9491V16.1938H79.9061H88.0174C90.9935 16.1938 93.9696 17.13 96.1287 19.2948C98.2878 21.2255 99.2214 24.2094 99.2214 27.0763C99.2214 28.7145 99.2214 25.4966 99.2214 27.0763ZM95.0783 27.0763C95.0783 25.087 94.6115 23.0393 93.2693 21.5181C91.9271 19.9969 90.0014 19.3533 88.0757 19.3533H84.1077V34.7993H88.0757C90.0598 34.7993 91.9855 34.1557 93.2693 32.6345C94.6115 31.1133 95.0783 29.0656 95.0783 27.0763Z" fill="white"/>
<path d="M112.643 22.688L112.118 25.4963C112.001 26.1399 111.359 26.0229 110.892 25.9059C110.309 25.7304 109.609 25.7304 109.083 25.9059C107.8 26.1984 106.924 27.2516 106.457 28.3632V35.0331C107.8 35.2671 107.8 35.2671 107.975 35.2671C108.5 35.3842 108.733 35.6767 108.733 36.2033V37.9585H106.457H102.664H100.389V36.2033C100.389 35.6767 100.622 35.3257 101.147 35.2671C101.381 35.2086 101.381 35.2086 102.664 35.0331V25.4963C101.322 25.2623 101.322 25.2623 101.147 25.2623C100.622 25.1453 100.389 24.8528 100.389 24.3262V22.5709H102.664H104.882C105.524 22.5709 105.874 22.805 105.991 23.5071L106.166 25.3793C106.808 24.2677 107.683 23.2145 108.908 22.6295C110.017 22.0444 111.534 21.9859 112.643 22.688Z" fill="white"/>
<path d="M124.138 22.8053C127.464 24.151 128.807 27.486 128.69 30.8209C128.515 34.0973 126.706 37.0812 123.38 38.0173C120.228 38.895 116.435 38.0174 114.568 35.1505C112.759 32.4591 112.701 28.3636 114.393 25.5552C116.319 22.3958 120.754 21.4597 124.138 22.8053C125.072 23.1564 123.205 22.3958 124.138 22.8053ZM123.847 34.0973C125.014 32.4591 125.014 29.9433 124.547 28.1295C124.372 27.2519 123.963 26.4328 123.263 25.8477C122.504 25.2627 121.512 25.0286 120.579 25.1456C118.536 25.2627 117.486 26.7254 117.194 28.5976C116.902 30.4113 116.902 32.9857 118.244 34.4484C119.703 35.9111 122.621 35.7941 123.847 34.0973C124.488 33.2782 123.263 34.975 123.847 34.0973Z" fill="white"/>
<path d="M138.084 36.3198V38.0751H135.808H132.015H129.681V36.3198C129.681 35.7933 129.914 35.4422 130.439 35.3837C130.965 35.2667 131.432 35.2082 131.957 35.1497V25.5544C131.432 25.4374 130.965 25.3789 130.439 25.3204C129.914 25.2034 129.681 24.9108 129.681 24.3842V22.629H131.957H135.75V35.2082C136.275 35.3252 136.742 35.3837 137.267 35.4422C137.851 35.4422 138.084 35.7933 138.084 36.3198ZM136.158 18.8845C135.575 20.0547 134.174 20.6397 133.007 20.1717C131.84 19.6451 131.198 18.2409 131.723 17.0708C132.249 15.8421 133.649 15.3155 134.874 15.7836C136.1 16.2517 136.742 17.6559 136.158 18.8845C136.333 18.5335 136.042 19.1185 136.158 18.8845Z" fill="white"/>
<path d="M155.651 38.0169H153.492H151.216C150.749 38.0169 150.341 37.8414 150.224 37.3149L149.932 35.9107C148.532 37.5489 146.489 38.5435 144.213 38.3095C141.996 38.0754 140.42 36.4372 139.662 34.448C138.261 30.5865 138.903 24.9112 142.93 22.8634C145.147 21.7518 147.89 21.9858 149.699 23.741V18.5338C149.173 18.4168 148.707 18.3583 148.181 18.2998C147.656 18.1828 147.423 17.8903 147.423 17.3637V15.6085H149.699H153.492V35.2086C153.959 35.3256 154.425 35.3841 154.892 35.4426C155.417 35.5596 155.651 35.8522 155.651 36.3787V38.0169ZM149.757 26.4909C148.765 25.3208 147.306 24.7942 145.847 25.1452C144.388 25.4963 143.571 26.7834 143.28 28.1291C142.988 29.4748 142.988 31.0545 143.221 32.4587C143.455 33.8044 144.213 35.0331 145.614 35.3256C147.306 35.6181 148.765 34.7405 149.815 33.5118V26.4909H149.757Z" fill="white"/>
</g>
<path d="M54.316 8.19956V6.77019H58.0521V10.1711C56.2332 11.9455 52.5462 12.0934 50.924 10.0233C49.3017 7.95312 49.7441 4.35502 52.2021 3.1228C53.2836 2.58062 54.7093 2.58062 55.7908 2.92564C56.8723 3.27067 57.6589 4.10858 57.9047 5.24222L56.1841 5.58725C55.84 4.35502 54.4635 3.96071 53.3328 4.35502C52.2513 4.70004 51.8089 5.73512 51.7597 6.77019C51.7106 7.85454 51.9072 9.03748 52.7921 9.67823C53.8244 10.4669 55.2992 10.1218 56.2332 9.3825V8.24886H54.316V8.19956Z" fill="white"/>
<path d="M59.6273 11.4033V2.87634H66.0181V4.30573H61.3971V6.17871H65.7231V7.60809H61.3971V9.97396H66.2147V11.4033H59.6273Z" fill="white"/>
<path d="M69.6064 11.4033V4.30573H67.0992V2.87634H73.9325V4.30573H71.4253V11.4526L69.6064 11.4033Z" fill="white"/>
<path d="M78.3071 11.4033V2.87634H80.0277V11.4033H78.3071Z" fill="white"/>
<path d="M83.6146 11.4033V4.30573H81.1074V2.87634H87.9407V4.30573H85.4335V11.4526L83.6146 11.4033Z" fill="white"/>
<path d="M91.9718 7.16464C91.9718 6.32673 92.1193 5.5381 92.3651 4.99592C92.7584 4.15801 93.4466 3.41868 94.2824 3.02436C95.6588 2.48218 97.4777 2.53148 98.7067 3.46797C99.9357 4.35517 100.378 5.88312 100.329 7.3125C100.28 8.74189 99.7883 10.1713 98.4609 11.0092C97.2319 11.7978 95.4622 11.7978 94.184 11.157C92.6109 10.4177 91.9718 8.79118 91.9718 7.16464ZM93.7908 7.11535C93.7908 8.249 94.1349 9.48123 95.3147 9.87554C96.3962 10.3191 97.6743 9.87554 98.1659 8.88976C98.6575 7.95327 98.6576 6.4746 98.3134 5.53811C97.871 4.50304 96.7895 4.01015 95.7079 4.2073C94.2331 4.45375 93.7908 5.83384 93.7908 7.11535Z" fill="white"/>
<path d="M101.708 11.4033V2.87634H103.379L106.919 8.59387V2.87634H108.541V11.4033H106.771L103.281 5.7844V11.4033H101.708Z" fill="white"/>
<path d="M32.4535 35.8524H5.69993C4.39158 35.8524 3.35388 34.812 3.35388 33.5002V17.804C3.35388 16.4922 4.43669 15.4518 5.69993 15.4518H32.4535C33.7619 15.4518 34.7996 16.4922 34.7996 17.804V33.5002C34.7996 34.7668 33.7167 35.8524 32.4535 35.8524Z" fill="url(#paint0_linear_61_71)"/>
<path d="M32.4535 16.266C33.3107 16.266 34.0326 16.9897 34.0326 17.8492V33.5002C34.0326 34.3597 33.3107 35.0834 32.4535 35.0834H5.69993C4.84273 35.0834 4.12088 34.3597 4.12088 33.5002V17.804C4.12088 16.9445 4.84273 16.2208 5.69993 16.2208H32.4535M32.4535 15.4518H5.69993C4.39158 15.4518 3.35388 16.4922 3.35388 17.804V33.5002C3.35388 34.812 4.43669 35.8524 5.69993 35.8524H32.4535C33.7619 35.8524 34.7996 34.812 34.7996 33.5002V17.804C34.7996 16.5374 33.7167 15.4518 32.4535 15.4518Z" fill="url(#paint1_linear_61_71)"/>
<path d="M19.0574 18.3913C23.0727 18.3913 26.321 21.6482 26.321 25.6288C26.321 29.6094 23.0727 32.8663 19.0574 32.8663C15.0421 32.8663 11.7938 29.6094 11.7938 25.6288C11.7938 21.6482 15.0421 18.3913 19.0574 18.3913ZM19.0574 17.8033C14.7263 17.8033 11.2073 21.3315 11.2073 25.6288C11.2073 29.926 14.7263 33.4543 19.0574 33.4543C23.3885 33.4543 26.9076 29.926 26.9076 25.6288C26.9076 21.3315 23.4336 17.8033 19.0574 17.8033Z" fill="#295384"/>
<path d="M16.8015 24.9502C17.6587 22.3718 21.6288 23.186 21.4032 25.9453C21.1777 28.4784 17.5684 28.7498 16.8015 26.4881C16.8015 26.4881 16.8015 26.5333 16.8015 26.4881C15.7187 26.5786 14.681 26.6691 13.5983 26.7595C14.3652 31.3282 20.501 32.6852 23.3432 29.1569C26.2758 25.5382 23.4786 20.0196 18.8317 20.2006C16.3052 20.3363 14.0945 22.1456 13.6434 24.6335" fill="#295384"/>
<path d="M37.0598 1.24711L36.1575 0.523368C36.0222 0.387666 35.7063 0.387661 35.6161 0.568598L32.5483 4.1421C32.4129 4.2778 32.4129 4.59444 32.5934 4.68491L33.4957 5.40865C33.631 5.54435 33.9468 5.54436 34.037 5.36342L37.1049 1.78992C37.2403 1.65422 37.1952 1.38281 37.0598 1.24711Z" fill="#7B952D"/>
<path d="M1.10181 0.976118L2.00412 0.252369C2.13947 0.116666 2.45531 0.116669 2.54554 0.297606L5.61338 3.8711C5.74872 4.0068 5.74873 4.32344 5.56827 4.41391L4.66596 5.13766C4.53061 5.27336 4.21482 5.27336 4.12459 5.09242L1.0567 1.51893C0.921355 1.38322 0.966459 1.15705 1.10181 0.976118Z" fill="#7B952D"/>
<path d="M33.6294 14.275H4.52976C4.07861 14.275 3.76282 13.9132 3.76282 13.5061V4.86633C3.76282 4.41399 4.12372 4.09735 4.52976 4.09735H33.6294C34.0805 4.09735 34.3964 4.45922 34.3964 4.86633V13.5061C34.3964 13.9132 34.0354 14.275 33.6294 14.275Z" fill="url(#paint2_linear_61_71)" stroke="#7B952D" stroke-width="0.451157" stroke-miterlimit="10"/>
<path d="M11.2085 11.5598C12.7284 11.5598 13.9605 10.3244 13.9605 8.80048C13.9605 7.27657 12.7284 6.0412 11.2085 6.0412C9.68855 6.0412 8.45642 7.27657 8.45642 8.80048C8.45642 10.3244 9.68855 11.5598 11.2085 11.5598Z" fill="white"/>
<path d="M11.2095 11.9219C9.49509 11.9219 8.05139 10.5196 8.05139 8.80072C8.05139 7.08182 9.44998 5.67957 11.2095 5.67957C12.9239 5.67957 14.3676 7.08182 14.3676 8.80072C14.3225 10.5196 12.969 11.9219 11.2095 11.9219ZM11.2095 6.44854C9.90114 6.44854 8.8635 7.48893 8.8635 8.80072C8.8635 10.1125 9.94625 11.1529 11.2095 11.1529C12.4727 11.1529 13.5555 10.1125 13.5555 8.80072C13.5555 7.48893 12.5178 6.44854 11.2095 6.44854Z" fill="url(#paint3_linear_61_71)"/>
<path d="M26.9059 11.5598C28.4258 11.5598 29.658 10.3244 29.658 8.80048C29.658 7.27657 28.4258 6.0412 26.9059 6.0412C25.386 6.0412 24.1538 7.27657 24.1538 8.80048C24.1538 10.3244 25.386 11.5598 26.9059 11.5598Z" fill="white"/>
<path d="M26.9069 11.9219C25.1925 11.9219 23.7488 10.5196 23.7488 8.80072C23.7488 7.08182 25.1474 5.67957 26.9069 5.67957C28.6213 5.67957 30.065 7.08182 30.065 8.80072C30.065 10.5196 28.7115 11.9219 26.9069 11.9219ZM26.9069 6.44854C25.5985 6.44854 24.5608 7.48893 24.5608 8.80072C24.5608 10.1125 25.6436 11.1529 26.9069 11.1529C28.2152 11.1529 29.2529 10.1125 29.2529 8.80072C29.2529 7.48893 28.2603 6.44854 26.9069 6.44854Z" fill="url(#paint4_linear_61_71)"/>
<defs>
<filter id="filter0_d_61_71" x="45.8525" y="15.6085" width="113.798" height="30.735" filterUnits="userSpaceOnUse" color-interpolation-filters="sRGB">
<feFlood flood-opacity="0" result="BackgroundImageFix"/>
<feColorMatrix in="SourceAlpha" type="matrix" values="0 0 0 0 0 0 0 0 0 0 0 0 0 0 0 0 0 0 127 0" result="hardAlpha"/>
<feOffset dy="4"/>
<feGaussianBlur stdDeviation="2"/>
<feComposite in2="hardAlpha" operator="out"/>
<feColorMatrix type="matrix" values="0 0 0 0 0 0 0 0 0 0 0 0 0 0 0 0 0 0 0.25 0"/>
<feBlend mode="normal" in2="BackgroundImageFix" result="effect1_dropShadow_61_71"/>
<feBlend mode="normal" in="SourceGraphic" in2="effect1_dropShadow_61_71" result="shape"/>
</filter>
<linearGradient id="paint0_linear_61_71" x1="19.0517" y1="35.8524" x2="19.0517" y2="15.4671" gradientUnits="userSpaceOnUse">
<stop stop-color="#2B6099"/>
<stop offset="0.1299" stop-color="#2F69A1"/>
<stop offset="0.3451" stop-color="#3B83B6"/>
<stop offset="0.5" stop-color="#4699C8"/>
<stop offset="0.9944" stop-color="#479ECB"/>
</linearGradient>
<linearGradient id="paint1_linear_61_71" x1="19.0517" y1="35.8524" x2="19.0517" y2="15.4671" gradientUnits="userSpaceOnUse">
<stop stop-color="#2B6099"/>
<stop offset="0.5" stop-color="#58A4CD"/>
<stop offset="0.7865" stop-color="#7FB8D9"/>
<stop offset="1" stop-color="#9EC9E2"/>
</linearGradient>
<linearGradient id="paint2_linear_61_71" x1="19.0546" y1="14.2903" x2="19.0546" y2="4.09753" gradientUnits="userSpaceOnUse">
<stop stop-color="#BCDB52"/>
<stop offset="0.3206" stop-color="#C5E358"/>
<stop offset="0.5" stop-color="#CDEA5C"/>
<stop offset="0.9944" stop-color="#DCF285"/>
</linearGradient>
<linearGradient id="paint3_linear_61_71" x1="12.1065" y1="5.79465" x2="10.2679" y2="11.7926" gradientUnits="userSpaceOnUse">
<stop stop-color="#8BA53D"/>
<stop offset="0.0848472" stop-color="#94AE45"/>
<stop offset="0.2259" stop-color="#AEC65C"/>
<stop offset="0.4048" stop-color="#D7ED81"/>
<stop offset="0.4246" stop-color="#DCF285"/>
</linearGradient>
<linearGradient id="paint4_linear_61_71" x1="27.8415" y1="5.79465" x2="26.0031" y2="11.7924" gradientUnits="userSpaceOnUse">
<stop stop-color="#8BA53D"/>
<stop offset="0.0848472" stop-color="#94AE45"/>
<stop offset="0.2259" stop-color="#AEC65C"/>
<stop offset="0.4048" stop-color="#D7ED81"/>
<stop offset="0.4246" stop-color="#DCF285"/>
</linearGradient>
</defs>
</svg>
