<svg width="18" height="20" viewBox="0 0 18 20" fill="none" xmlns="http://www.w3.org/2000/svg">
<path d="M17.0105 16.0583C16.424 15.8181 16.1732 15.4994 16.1974 15.0238C16.2224 14.4686 15.9075 14.062 15.7579 13.9013C15.8482 13.5562 16.1123 12.3621 15.7581 11.3249C15.3775 10.2147 14.2156 8.51914 13.0166 6.85244C12.5258 6.16798 12.5026 5.42397 12.4758 4.56246C12.4501 3.74075 12.4211 2.80933 11.9628 1.77391C11.4646 0.646496 10.4649 0 9.2198 0C8.47914 0 7.71887 0.231477 7.13382 0.635021C5.93578 1.46185 6.09414 3.26455 6.19893 4.45741C6.21329 4.62075 6.2268 4.77505 6.23467 4.90679C6.30444 6.07506 6.24096 6.6908 6.15795 6.87795C6.10424 7.00024 5.83985 7.34831 5.56004 7.71684C5.27066 8.09796 4.94259 8.52996 4.67367 8.93252C4.35282 9.41691 4.0938 10.1573 3.84331 10.8733C3.66003 11.3973 3.48691 11.8921 3.31839 12.1879C2.99898 12.7568 3.07845 13.2873 3.14481 13.5325C3.02389 13.6165 2.8492 13.7819 2.70173 14.0936C2.5235 14.4739 2.16185 14.6783 1.40985 14.8229C1.06427 14.8936 0.825977 15.0389 0.701386 15.2548C0.520073 15.569 0.618828 15.9637 0.708927 16.2335C0.842042 16.6301 0.759091 16.8811 0.60827 17.3368C0.573516 17.442 0.534106 17.5611 0.494171 17.6924C0.431286 17.8997 0.453974 18.0882 0.56145 18.2526C0.845452 18.6867 1.67418 18.8399 2.5273 18.9406C3.03668 19.001 3.59419 19.2048 4.13341 19.4019C4.66174 19.595 5.20804 19.7946 5.70463 19.8552C5.78011 19.8647 5.85486 19.8695 5.92693 19.8695C6.6767 19.8695 7.01546 19.372 7.12287 19.1676C7.39218 19.1126 8.32104 18.9367 9.27836 18.913C10.2342 18.8858 11.159 19.0745 11.4209 19.1332C11.5033 19.2908 11.7204 19.6509 12.0665 19.8364C12.2567 19.9404 12.5215 20 12.7926 20C12.7927 20 12.7926 20 12.7927 20C13.0823 20 13.6331 19.9315 14.0691 19.4729C14.504 19.012 15.5906 18.4237 16.384 17.9941C16.5611 17.8982 16.7267 17.8085 16.872 17.7275C17.3177 17.4804 17.5609 17.1274 17.5392 16.7589C17.5211 16.4529 17.3185 16.1844 17.0105 16.0583ZM7.14359 15.9696C7.08812 15.5788 6.58536 15.1912 6.00313 14.7424C5.52706 14.3754 4.98745 13.9594 4.83879 13.6072C4.53158 12.8805 4.77374 11.6027 5.19597 10.9447C5.40463 10.6153 5.57506 10.1157 5.73991 9.63252C5.91788 9.11082 6.10195 8.5714 6.30778 8.33527C6.63375 7.96661 6.935 7.24929 6.98838 6.68398C7.29363 6.97539 7.76714 7.34516 8.20458 7.34516C8.27193 7.34516 8.3373 7.33638 8.3998 7.31874C8.69908 7.23231 9.13928 6.97795 9.56499 6.73204C9.932 6.51998 10.3846 6.25847 10.5549 6.23466C10.8469 6.65395 12.5436 10.4088 12.717 11.6146C12.8542 12.5687 12.7093 13.3575 12.6364 13.6664C12.5778 13.6584 12.5079 13.6519 12.4344 13.6519C11.9619 13.6519 11.8367 13.9099 11.8041 14.0639C11.7203 14.4641 11.7115 15.7438 11.7106 16.0313C11.5397 16.2484 10.6755 17.2709 9.43476 17.4547C8.92937 17.5281 8.45744 17.5654 8.03212 17.5654C7.66858 17.5654 7.43658 17.5373 7.34025 17.5227L6.71677 16.8093C6.96261 16.6879 7.20838 16.4318 7.14359 15.9696ZM7.93475 4.20652C7.91527 4.21491 7.89612 4.2239 7.8773 4.23347C7.8754 4.19124 7.87101 4.14842 7.86425 4.10547C7.79619 3.71366 7.53638 3.42927 7.24661 3.42927C7.22517 3.42927 7.20359 3.43091 7.17992 3.43451C7.00753 3.46324 6.87231 3.59275 6.79821 3.77635C6.8632 3.37347 7.09146 3.07517 7.36228 3.07517C7.68032 3.07517 7.94897 3.50376 7.94897 4.01104C7.94897 4.07498 7.94432 4.13859 7.93475 4.20652ZM10.406 4.50862C10.4351 4.4159 10.4508 4.31557 10.4508 4.21144C10.4508 3.7515 10.159 3.39117 9.7865 3.39117C9.42243 3.39117 9.12623 3.75911 9.12623 4.21144C9.12623 4.24226 9.12774 4.27314 9.13062 4.30396C9.11134 4.29655 9.09252 4.28934 9.07416 4.28239C9.03226 4.1555 9.01108 4.02311 9.01108 3.88796C9.01108 3.33799 9.36256 2.89051 9.79469 2.89051C10.2268 2.89051 10.5783 3.33799 10.5783 3.88796C10.5783 4.11675 10.5152 4.33511 10.406 4.50862ZM10.0873 5.57905C10.0811 5.60686 10.0679 5.61918 9.92138 5.69538C9.84741 5.73387 9.75535 5.78181 9.64013 5.85197L9.56315 5.8986C9.25377 6.08614 8.52937 6.52542 8.33272 6.55119C8.19914 6.56916 8.11652 6.51735 7.93074 6.39112C7.88884 6.3626 7.84425 6.3323 7.79671 6.30181C7.46182 6.08207 7.24641 5.84004 7.22208 5.74542C7.33127 5.66102 7.60189 5.44981 7.74045 5.32476C8.0217 5.06325 8.30471 4.88751 8.44478 4.88751C8.45219 4.88751 8.45888 4.88803 8.46583 4.88934C8.63042 4.91839 9.03639 5.08043 9.33292 5.19872C9.46997 5.25341 9.58833 5.30063 9.67161 5.33053C9.93397 5.42063 10.0708 5.53591 10.0873 5.57905ZM12.4445 17.8001C12.5925 17.1325 12.763 16.2243 12.7354 15.6889C12.7291 15.5673 12.7183 15.4349 12.7079 15.3069C12.6884 15.0675 12.6595 14.7118 12.6893 14.6063C12.6952 14.6035 12.7018 14.6011 12.7091 14.5991C12.7103 14.9052 12.7768 15.5158 13.2651 15.7287C13.4106 15.7922 13.5769 15.8243 13.7593 15.8243C14.2484 15.8243 14.7911 15.5844 15.0134 15.3621C15.1443 15.2312 15.2544 15.0711 15.3315 14.9442C15.3484 14.9936 15.3587 15.0581 15.3533 15.1413C15.3242 15.5928 15.5436 16.1917 15.9612 16.4124L16.022 16.4444C16.1707 16.5224 16.5658 16.7298 16.5721 16.8282C16.572 16.8282 16.5688 16.8398 16.5467 16.8602C16.4478 16.9507 16.0995 17.1285 15.7627 17.3005C15.1653 17.6056 14.4881 17.9513 14.184 18.2712C13.7558 18.7218 13.2714 19.0245 12.979 19.0245C12.9438 19.0245 12.9117 19.0201 12.8832 19.011C12.5655 18.912 12.3041 18.4537 12.4445 17.8001ZM1.61752 16.097C1.58513 15.9454 1.55956 15.8257 1.58703 15.7097C1.60697 15.6238 2.03103 15.5318 2.21215 15.4925C2.46677 15.4372 2.73012 15.3801 2.90232 15.2756C3.13517 15.1345 3.26127 14.8744 3.37249 14.6449C3.45301 14.4789 3.53616 14.3073 3.63511 14.251C3.64068 14.2477 3.64921 14.2439 3.66547 14.2439C3.85085 14.2439 4.23984 14.6336 4.46397 14.9824C4.52082 15.0703 4.62613 15.2465 4.74797 15.4505C5.11237 16.0602 5.61132 16.8953 5.87191 17.1752C6.10673 17.4268 6.48687 17.9105 6.39336 18.3254C6.3249 18.6473 5.96044 18.9091 5.87447 18.967C5.84326 18.9741 5.80463 18.9777 5.75919 18.9777C5.26043 18.9777 4.27315 18.5627 3.74272 18.3398L3.66422 18.3068C3.36803 18.1826 2.88448 18.1044 2.41687 18.0287C2.0448 17.9684 1.53529 17.886 1.45083 17.8115C1.38237 17.7347 1.46178 17.4851 1.53182 17.2648C1.58224 17.1065 1.63431 16.9429 1.66283 16.7715C1.70329 16.4982 1.65569 16.2757 1.61752 16.097Z" fill="white"/>
</svg>
