<svg width="184" height="44" viewBox="0 0 184 44" fill="none" xmlns="http://www.w3.org/2000/svg">
<path d="M153.721 37.25H156.665V17.5596H153.721V37.25ZM180.238 24.653L176.863 33.1893H176.762L173.26 24.653H170.088L175.342 36.5837L172.346 43.2206H175.416L183.512 24.6536L180.238 24.653ZM163.541 35.0134C162.579 35.0134 161.233 34.5316 161.233 33.3412C161.233 31.8215 162.908 31.2389 164.354 31.2389C165.647 31.2389 166.258 31.517 167.044 31.8972C166.815 33.7213 165.242 35.0133 163.541 35.0133L163.541 35.0134ZM163.898 24.2224C161.766 24.2224 159.559 25.1599 158.645 27.237L161.258 28.326C161.817 27.237 162.856 26.8827 163.948 26.8827C165.471 26.8827 167.018 27.7938 167.044 29.4156V29.618C166.51 29.314 165.368 28.8582 163.973 28.8582C161.155 28.8582 158.289 30.4029 158.289 33.2907C158.289 35.9252 160.599 37.6225 163.186 37.6225C165.165 37.6225 166.258 36.7359 166.941 35.697H167.044V37.2177H169.887V29.6683C169.887 26.1726 167.271 24.2223 163.898 24.2223V24.2224ZM145.703 27.0499H141.515V20.3011H145.703C147.904 20.3011 149.153 22.1197 149.153 23.6754C149.153 25.2013 147.904 27.0499 145.703 27.0499ZM145.627 17.5601H138.573V37.2504H141.515V29.7909H145.627C148.89 29.7909 152.097 27.4334 152.097 23.6761C152.097 19.9196 148.89 17.5609 145.627 17.5609L145.627 17.5601ZM107.16 35.0167C105.126 35.0167 103.424 33.3161 103.424 30.9827C103.424 28.6221 105.126 26.8975 107.16 26.8975C109.168 26.8975 110.744 28.6222 110.744 30.9827C110.744 33.3161 109.168 35.0167 107.16 35.0167ZM110.541 25.7553H110.439C109.778 24.9689 108.507 24.2584 106.906 24.2584C103.551 24.2584 100.475 27.2022 100.475 30.9827C100.475 34.7374 103.551 37.6554 106.906 37.6554C108.507 37.6554 109.778 36.9447 110.439 36.1333H110.541V37.0967C110.541 39.6604 109.168 41.0299 106.957 41.0299C105.153 41.0299 104.034 39.736 103.576 38.6451L101.01 39.7107C101.746 41.4861 103.703 43.6691 106.957 43.6691C110.415 43.6691 113.338 41.6387 113.338 36.6906V24.6642H110.541L110.541 25.7553ZM115.371 37.2494H118.319V17.559H115.371V37.2494ZM122.665 30.7539C122.59 28.1656 124.674 26.8465 126.173 26.8465C127.343 26.8465 128.333 27.4304 128.665 28.2671L122.665 30.7539ZM131.816 28.5206C131.257 27.0244 129.554 24.2584 126.072 24.2584C122.614 24.2584 119.742 26.9733 119.742 30.9569C119.742 34.7123 122.59 37.6555 126.401 37.6555C129.477 37.6555 131.257 35.7785 131.994 34.687L129.707 33.1644C128.944 34.281 127.902 35.0168 126.401 35.0168C124.903 35.0168 123.835 34.3315 123.149 32.9867L132.121 29.2824L131.816 28.5206ZM60.3317 26.3138V29.1555H67.1436C66.9402 30.754 66.4064 31.921 65.5929 32.7331C64.6013 33.7223 63.0508 34.8137 60.3316 34.8137C56.1375 34.8137 52.8588 31.4392 52.8588 27.2526C52.8588 23.066 56.1375 19.6911 60.3316 19.6911C62.5939 19.6911 64.2457 20.5793 65.4658 21.7212L67.4744 19.7162C65.7709 18.0926 63.5091 16.8493 60.3316 16.8493C54.5863 16.8493 49.757 21.5181 49.757 27.2526C49.757 32.9866 54.5863 37.6555 60.3316 37.6555C63.4321 37.6555 65.771 36.6404 67.6008 34.7376C69.4818 32.8598 70.0666 30.2211 70.0666 28.0894C70.0666 27.4305 70.0154 26.8215 69.9137 26.3138H60.3317ZM77.8119 35.0167C75.778 35.0167 74.024 33.342 74.024 30.9569C74.024 28.5465 75.778 26.8977 77.8119 26.8977C79.845 26.8977 81.5989 28.5465 81.5989 30.9569C81.5989 33.342 79.845 35.0167 77.8119 35.0167ZM77.8119 24.2584C74.0998 24.2584 71.0755 27.0747 71.0755 30.9569C71.0755 34.8137 74.0998 37.6555 77.8119 37.6555C81.5226 37.6555 84.5474 34.8137 84.5474 30.9569C84.5474 27.0747 81.5226 24.2584 77.8119 24.2584ZM92.5053 35.0167C90.4729 35.0167 88.7183 33.342 88.7183 30.9569C88.7183 28.5465 90.473 26.8977 92.5053 26.8977C94.5393 26.8977 96.2926 28.5465 96.2926 30.9569C96.2926 33.342 94.5393 35.0167 92.5053 35.0167ZM92.5053 24.2584C88.7947 24.2584 85.7704 27.0747 85.7704 30.9569C85.7704 34.8137 88.7947 37.6555 92.5053 37.6555C96.2175 37.6555 99.2417 34.8137 99.2417 30.9569C99.2417 27.0747 96.2175 24.2584 92.5053 24.2584Z" fill="white"/>
<path d="M17.6881 20.5933L0.891846 38.3901C0.892478 38.3938 0.893739 38.3968 0.894331 38.4006C1.40946 40.3332 3.17769 41.7561 5.27621 41.7561C6.1151 41.7561 6.9027 41.5297 7.57815 41.1323L7.63179 41.1009L26.5391 30.2097L17.6889 20.5931" fill="#EB3131"/>
<path d="M34.6832 17.5641L34.6671 17.5531L26.5043 12.8293L17.3077 20.9984L26.5362 30.2095L34.656 25.5326C36.0795 24.7655 37.046 23.2673 37.046 21.5398C37.046 19.8246 36.0926 18.3339 34.6831 17.5642" fill="#F6B60B"/>
<path d="M0.88781 4.61285C0.786836 4.98455 0.733765 5.37388 0.733765 5.77818V37.2268C0.733765 37.6303 0.78621 38.021 0.88845 38.3914L18.2645 21.0493L0.88845 4.6133" fill="#5778C5"/>
<path d="M17.8094 21.5014L26.5037 12.8249L7.61771 1.89427C6.93123 1.48383 6.13002 1.24695 5.2727 1.24695C3.17417 1.24695 1.40355 2.67249 0.888327 4.60727C0.887695 4.60916 0.887695 4.61046 0.887695 4.61211L17.8094 21.5017" fill="#3BAD49"/>
<path d="M59.7793 5.40532H55.1767V6.54229H58.6257C58.5319 7.47011 58.1621 8.19853 57.5384 8.72762C56.9148 9.25681 56.1184 9.52251 55.1767 9.52251C54.1438 9.52251 53.2686 9.16326 52.5514 8.44965C51.8487 7.72122 51.4913 6.82046 51.4913 5.73524C51.4913 4.65008 51.8487 3.74931 52.5514 3.02094C53.2686 2.30732 54.1438 1.95044 55.1767 1.95044C55.7069 1.95044 56.2122 2.04148 56.6756 2.24086C57.1391 2.44009 57.5113 2.71823 57.8022 3.07513L58.6774 2.20149C58.2804 1.75105 57.7776 1.4066 57.1537 1.15556C56.5301 0.904506 55.8793 0.784019 55.1766 0.784019C53.7986 0.784019 52.6302 1.26139 51.6761 2.21381C50.722 3.16856 50.2438 4.34492 50.2438 5.73526C50.2438 7.1256 50.722 8.30449 51.6761 9.25694C52.6301 10.2092 53.7986 10.6867 55.1766 10.6867C56.6237 10.6867 57.7775 10.224 58.665 9.28388C59.4464 8.50143 59.8457 7.44324 59.8457 6.11929C59.8457 5.89532 59.8186 5.65656 59.7792 5.40551L59.7793 5.40532ZM61.5623 0.995451V10.4749H67.1065V9.31087H62.7826V6.30374H66.6826V5.16677H62.7826V2.162H67.1065V0.995417L61.5623 0.995451ZM74.8808 2.16204V0.995451H68.3553V2.16204H71.0079V10.4749H72.2282V2.16204H74.8808ZM80.7886 0.995451H79.5683V10.4749H80.7886V0.995451ZM88.843 2.16204V0.995451H82.3177V2.16204H84.9701V10.4749H86.1903V2.16204H88.843ZM101.157 2.2285C100.215 1.26132 99.0614 0.783936 97.6832 0.783936C96.3028 0.783936 95.1491 1.26131 94.2073 2.21373C93.2656 3.15383 92.8022 4.33255 92.8022 5.73518C92.8022 7.1378 93.2656 8.3167 94.2073 9.25686C95.1491 10.2091 96.3028 10.6867 97.6832 10.6867C99.0489 10.6867 100.215 10.2091 101.157 9.25686C102.099 8.31675 102.562 7.13792 102.562 5.73518C102.562 4.34484 102.098 3.16842 101.157 2.2285ZM95.0825 3.02086C95.7851 2.30724 96.6479 1.95036 97.6832 1.95036C98.7162 1.95036 99.5791 2.30725 100.269 3.02086C100.972 3.7222 101.317 4.63753 101.317 5.73515C101.317 6.83527 100.972 7.74813 100.269 8.44956C99.579 9.16318 98.7162 9.52243 97.6832 9.52243C96.6479 9.52243 95.7851 9.16317 95.0825 8.44956C94.3946 7.73343 94.0496 6.83526 94.0496 5.73515C94.0496 4.63755 94.3946 3.73694 95.0825 3.02086ZM105.461 4.57126L105.409 2.74267H105.461L110.288 10.4748H111.562V0.995357H110.342V6.54219L110.394 8.37077H110.342L105.727 0.995357H104.241V10.4748H105.461V4.57126Z" fill="white" stroke="white" stroke-width="0.315548" stroke-miterlimit="10"/>
</svg>
