<svg width="72" height="72" viewBox="0 0 72 72" fill="none" xmlns="http://www.w3.org/2000/svg">
<rect width="72" height="72" rx="20" fill="url(#paint0_linear_1_900)"/>
<g clip-path="url(#clip0_1_900)">
<path fill-rule="evenodd" clip-rule="evenodd" d="M28.7213 13.12C28.7213 11.3969 30.1182 10 31.8413 10C43.3289 10 52.6413 19.3125 52.6413 30.8C52.6413 32.5231 51.2444 33.92 49.5213 33.92C47.7982 33.92 46.4013 32.5231 46.4013 30.8C46.4013 22.7587 39.8826 16.24 31.8413 16.24C30.1182 16.24 28.7213 14.8431 28.7213 13.12Z" fill="white"/>
<path fill-rule="evenodd" clip-rule="evenodd" d="M43.2786 58.8801C43.2786 60.6032 41.8817 62.0001 40.1586 62.0001C28.6711 62.0001 19.3586 52.6877 19.3586 41.2001C19.3586 39.477 20.7554 38.0801 22.4786 38.0801C24.2017 38.0801 25.5986 39.477 25.5986 41.2001C25.5986 49.2413 32.1173 55.7601 40.1586 55.7601C41.8817 55.7601 43.2786 57.157 43.2786 58.8801Z" fill="white"/>
<path fill-rule="evenodd" clip-rule="evenodd" d="M13.12 43.2798C11.3969 43.2798 10 41.8829 10 40.1598C10 28.6722 19.3125 19.3597 30.8 19.3597C32.5231 19.3597 33.92 20.7566 33.92 22.4798C33.92 24.2029 32.5231 25.5998 30.8 25.5998C22.7588 25.5998 16.24 32.1185 16.24 40.1598C16.24 41.8829 14.8431 43.2798 13.12 43.2798Z" fill="white"/>
<path fill-rule="evenodd" clip-rule="evenodd" d="M58.8799 28.7195C60.603 28.7195 61.9999 30.1164 61.9999 31.8395C61.9999 43.3271 52.6875 52.6395 41.1999 52.6395C39.4768 52.6395 38.0799 51.2426 38.0799 49.5195C38.0799 47.7964 39.4768 46.3995 41.1999 46.3995C49.2411 46.3995 55.7599 39.8808 55.7599 31.8395C55.7599 30.1164 57.1568 28.7195 58.8799 28.7195Z" fill="white"/>
</g>
<defs>
<linearGradient id="paint0_linear_1_900" x1="36.0001" y1="71.9998" x2="36.0001" y2="0" gradientUnits="userSpaceOnUse">
<stop stop-color="#00B59C"/>
<stop offset="1" stop-color="#9CFFAC"/>
</linearGradient>
<clipPath id="clip0_1_900">
<rect width="52" height="52" fill="white" transform="translate(10 10)"/>
</clipPath>
</defs>
</svg>
