<svg width="72" height="72" viewBox="0 0 72 72" fill="none" xmlns="http://www.w3.org/2000/svg">
<rect width="72" height="72" rx="20" fill="#3A76F0"/>
<g clip-path="url(#clip0_1_876)">
<path d="M30.4828 13.5666L31.0003 15.6581C28.9644 16.1586 27.0166 16.9645 25.2216 18.048L24.1147 16.2008C26.0921 15.0068 28.2394 14.1182 30.4828 13.5666ZM41.0053 15.6581C43.0412 16.1586 44.989 16.9645 46.7841 18.048L47.8981 16.2008C45.918 15.0059 43.7689 14.1182 41.5228 13.5666L41.0053 15.6581ZM16.3091 24.0055C15.115 25.983 14.2265 28.1302 13.6748 30.3727L15.7664 30.8902C16.2668 28.8553 17.0727 26.9066 18.1562 25.1124L16.3091 24.0055ZM15.3927 32.7698L13.2616 32.4463C12.9166 34.7311 12.9166 37.0544 13.2616 39.3391L15.3927 39.0157C15.0809 36.9502 15.0809 34.8353 15.3927 32.7698ZM46.7841 53.7375C44.9917 54.8201 43.0457 55.626 41.0125 56.1273L41.53 58.2189C43.7707 57.6664 45.9153 56.7787 47.8909 55.5847L46.7841 53.7375ZM56.613 39.0157L58.7441 39.3391C59.0891 37.0544 59.0891 34.7311 58.7441 32.4463L56.613 32.7698C56.9247 34.8353 56.9247 36.9502 56.613 39.0157ZM56.2392 40.8952C55.7388 42.9302 54.9329 44.8789 53.8494 46.6731L55.6966 47.7871C56.8915 45.807 57.7791 43.6579 58.3308 41.4127L56.2392 40.8952ZM39.1258 56.5047C37.0558 56.8164 34.9498 56.8164 32.8798 56.5047L32.5564 58.6358C34.8411 58.9808 37.1645 58.9808 39.4492 58.6358L39.1258 56.5047ZM52.782 48.2579C51.5386 49.9416 50.0499 51.4285 48.3653 52.6702L49.6447 54.4059C51.5035 53.0394 53.1459 51.4025 54.5178 49.5481L52.782 48.2579ZM48.3653 19.1153C50.0499 20.3579 51.5395 21.8466 52.782 23.5311L54.5178 22.2374C53.1504 20.3839 51.5125 18.747 49.6591 17.3795L48.3653 19.1153ZM19.2236 23.5311C20.4661 21.8466 21.9557 20.3579 23.6403 19.1153L22.3466 17.3795C20.4931 18.747 18.8552 20.3839 17.4878 22.2374L19.2236 23.5311ZM53.8494 25.1124C54.932 26.9048 55.7379 28.8508 56.2392 30.883L58.3308 30.3655C57.7782 28.1257 56.8897 25.9812 55.6966 24.0055L53.8494 25.1124ZM32.8798 15.2844C34.9498 14.9726 37.0558 14.9726 39.1258 15.2844L39.4492 13.1533C37.1645 12.8083 34.8411 12.8083 32.5564 13.1533L32.8798 15.2844ZM20.3305 54.9773L15.8778 56.0159L16.9164 51.5642L14.8177 51.0718L13.7791 55.5236C13.4152 57.0779 14.8159 58.4786 16.3702 58.1147L20.8192 57.0941L20.3305 54.9773ZM15.2669 49.1492L17.3656 49.6379L18.0844 46.5509C17.0368 44.79 16.256 42.8844 15.7664 40.8952L13.6748 41.4127C14.1438 43.3174 14.8563 45.1547 15.7952 46.8779L15.2669 49.1492ZM22.2423 54.5389L22.7311 56.6377L25.0023 56.1094C26.7255 57.0482 28.5628 57.7607 30.4684 58.2297L30.9859 56.1381C29.0004 55.6431 27.0993 54.857 25.3437 53.8058L22.2423 54.5389ZM19.6539 26.8589C16.3666 32.8111 16.5723 40.0786 20.1903 45.8357L18.3934 53.5003L26.0589 51.7043C32.7828 55.9387 41.4482 55.458 47.6636 50.5067C53.8781 45.5563 56.2814 37.217 53.6562 29.7178C48.3294 14.5072 27.3985 12.837 19.6539 26.8589Z" fill="white"/>
</g>
<defs>
<clipPath id="clip0_1_876">
<rect width="46" height="46" fill="white" transform="translate(13 12.8945)"/>
</clipPath>
</defs>
</svg>
