<svg width="72" height="72" viewBox="0 0 72 72" fill="none" xmlns="http://www.w3.org/2000/svg">
<rect width="72" height="72" rx="20" fill="white"/>
<path d="M20.7853 43.1425C20.7853 46.1076 18.3888 48.5041 15.4237 48.5041C12.4586 48.5041 10.0621 46.1076 10.0621 43.1425C10.0621 40.1774 12.4586 37.7809 15.4237 37.7809H20.7853V43.1425ZM23.4661 43.1425C23.4661 40.1774 25.8626 37.7809 28.8277 37.7809C31.7928 37.7809 34.1893 40.1774 34.1893 43.1425V56.5465C34.1893 59.5116 31.7928 61.9081 28.8277 61.9081C25.8626 61.9081 23.4661 59.5116 23.4661 56.5465V43.1425Z" fill="#E01E5A"/>
<path d="M28.8277 21.6149C25.8626 21.6149 23.4661 19.2184 23.4661 16.2533C23.4661 13.2882 25.8626 10.8917 28.8277 10.8917C31.7928 10.8917 34.1893 13.2882 34.1893 16.2533V21.6149H28.8277ZM28.8277 24.3363C31.7928 24.3363 34.1893 26.7328 34.1893 29.6979C34.1893 32.663 31.7928 35.0595 28.8277 35.0595H15.3831C12.418 35.0595 10.0215 32.663 10.0215 29.6979C10.0215 26.7328 12.418 24.3363 15.3831 24.3363H28.8277Z" fill="#36C5F0"/>
<path d="M50.3147 29.6979C50.3147 26.7328 52.7111 24.3363 55.6763 24.3363C58.6414 24.3363 61.0379 26.7328 61.0379 29.6979C61.0379 32.663 58.6414 35.0595 55.6763 35.0595H50.3147V29.6979ZM47.6339 29.6979C47.6339 32.663 45.2374 35.0595 42.2723 35.0595C39.3072 35.0595 36.9107 32.663 36.9107 29.6979V16.2533C36.9107 13.2882 39.3072 10.8917 42.2723 10.8917C45.2374 10.8917 47.6339 13.2882 47.6339 16.2533V29.6979Z" fill="#2EB67D"/>
<path d="M42.2723 51.1849C45.2374 51.1849 47.6339 53.5813 47.6339 56.5465C47.6339 59.5116 45.2374 61.9081 42.2723 61.9081C39.3072 61.9081 36.9107 59.5116 36.9107 56.5465V51.1849H42.2723ZM42.2723 48.5041C39.3072 48.5041 36.9107 46.1076 36.9107 43.1425C36.9107 40.1774 39.3072 37.7809 42.2723 37.7809H55.7169C58.682 37.7809 61.0785 40.1774 61.0785 43.1425C61.0785 46.1076 58.682 48.5041 55.7169 48.5041H42.2723Z" fill="#ECB22E"/>
</svg>
