<svg width="80" height="72" viewBox="0 0 80 72" fill="none" xmlns="http://www.w3.org/2000/svg">
<path d="M30.861 53.7445C24.9777 60.7182 16.4653 64.4383 7.86408 64.4383H3.90626V50.3757H9.08439C13.0328 50.3757 16.8 48.7257 19.4766 45.8367L30.861 53.7445Z" fill="url(#paint0_linear_1_768)"/>
<path d="M2.34375 42.9538C1.04938 42.9538 0 44.0032 0 45.2976V69.0476C0 70.342 1.04938 71.3914 2.34375 71.3914C3.63813 71.3914 4.68751 70.342 4.68751 69.0476V45.2976C4.68751 44.0032 3.63813 42.9538 2.34375 42.9538Z" fill="#547983"/>
<path d="M40.6485 48.4804L35.9626 55.3585C35.2282 56.4382 33.7563 56.707 32.6891 55.9648L17.311 45.2851C16.2438 44.5429 15.9828 43.0726 16.7313 42.0101L21.7016 34.9491L40.6485 48.4804Z" fill="url(#paint1_linear_1_768)"/>
<path d="M79.4798 45.6273L68.4736 59.2648C67.6906 60.2362 66.2859 60.419 65.2814 59.6961C55.2732 52.492 55.8989 52.9917 55.6064 52.6117L73.3908 38.4038L78.9783 42.2195C80.1048 42.9877 80.3411 44.5596 79.4798 45.6273Z" fill="url(#paint2_linear_1_768)"/>
<path d="M75.3387 34.0435L30.2718 1.49735C28.2476 0.0351564 25.4369 0.415157 23.8732 2.36172L9.06205 20.7971C7.37767 22.8941 7.80283 25.984 9.99221 27.5476L49.8628 56.0203C50.7148 56.6287 51.8685 56.5987 52.6878 55.944L75.4295 37.7748C76.638 36.8094 76.5962 34.9515 75.3387 34.0435Z" fill="url(#paint3_linear_1_768)"/>
<path d="M58.7501 38.1882C60.0445 38.1882 61.0939 37.1389 61.0939 35.8444C61.0939 34.55 60.0445 33.5007 58.7501 33.5007C57.4557 33.5007 56.4064 34.55 56.4064 35.8444C56.4064 37.1389 57.4557 38.1882 58.7501 38.1882Z" fill="white"/>
<defs>
<linearGradient id="paint0_linear_1_768" x1="17.3836" y1="64.4383" x2="17.3836" y2="45.8367" gradientUnits="userSpaceOnUse">
<stop stop-color="#C3FFE8"/>
<stop offset="0.9973" stop-color="#F0FFF4"/>
</linearGradient>
<linearGradient id="paint1_linear_1_768" x1="28.4763" y1="56.3839" x2="28.4763" y2="34.9491" gradientUnits="userSpaceOnUse">
<stop stop-color="#C3FFE8"/>
<stop offset="0.9973" stop-color="#F0FFF4"/>
</linearGradient>
<linearGradient id="paint2_linear_1_768" x1="67.8032" y1="38.4038" x2="67.8032" y2="60.1366" gradientUnits="userSpaceOnUse">
<stop stop-color="#344949"/>
<stop offset="1" stop-color="#63909C"/>
</linearGradient>
<linearGradient id="paint3_linear_1_768" x1="42.17" y1="56.4565" x2="42.17" y2="0.608871" gradientUnits="userSpaceOnUse">
<stop stop-color="#00B59C"/>
<stop offset="1" stop-color="#9CFFAC"/>
</linearGradient>
</defs>
</svg>
