<svg width="58" height="70" viewBox="0 0 58 70" fill="none" xmlns="http://www.w3.org/2000/svg">
<path d="M56.3691 16.253L30.1801 0.67287C29.4523 0.240001 28.5458 0.240001 27.818 0.67287L1.62891 16.253C0.928987 16.6695 0.499908 17.424 0.499908 18.2384V27.1323C0.499908 45.8648 11.323 62.9741 28.1649 69.4947C28.7011 69.7023 29.2964 69.7026 29.8331 69.4947C46.6342 62.9903 57.498 45.9181 57.498 27.1323V18.2384C57.4981 17.4239 57.0692 16.6695 56.3691 16.253Z" fill="url(#paint0_linear_1_779)"/>
<path d="M25.9349 44.2868L40.4133 29.8083C41.3156 28.9063 41.3156 27.4436 40.4133 26.5413C39.5111 25.6393 38.0483 25.6393 37.1463 26.5413L24.3013 39.3864L20.8536 35.9387C19.9516 35.0367 18.4888 35.0367 17.5867 35.9387C16.6845 36.8409 16.6845 38.3036 17.5867 39.2057L22.6679 44.2868C23.5701 45.1889 25.0328 45.1889 25.9349 44.2868Z" fill="url(#paint1_linear_1_779)"/>
<defs>
<linearGradient id="paint0_linear_1_779" x1="28.999" y1="69.6504" x2="28.999" y2="0.348218" gradientUnits="userSpaceOnUse">
<stop stop-color="#00B59C"/>
<stop offset="1" stop-color="#9CFFAC"/>
</linearGradient>
<linearGradient id="paint1_linear_1_779" x1="29" y1="44.9634" x2="29" y2="25.8648" gradientUnits="userSpaceOnUse">
<stop stop-color="#C3FFE8"/>
<stop offset="0.9973" stop-color="#F0FFF4"/>
</linearGradient>
</defs>
</svg>
