<svg width="120" height="92" viewBox="0 0 120 92" fill="none" xmlns="http://www.w3.org/2000/svg">
<path d="M102.262 31.8529C100.889 30.4799 98.6625 30.4799 97.2898 31.8529L82.3601 46.7826C81.7008 47.4421 81.3302 48.3365 81.3302 49.2691C81.3302 50.2016 81.701 51.096 82.3605 51.7551C86.779 56.1712 89.7682 61.7144 91.0059 67.7854C91.3397 69.4227 92.7797 70.5988 94.4508 70.5988H115.814C116.822 70.5988 117.782 70.1659 118.449 69.4103C119.117 68.6547 119.427 67.6487 119.303 66.6482C117.671 53.5682 111.62 41.2108 102.262 31.8529V31.8529ZM59.9747 67.1027C56.3037 67.1027 53.2943 69.8622 52.9741 73.5213C52.6165 77.6097 55.8443 81.1656 59.9824 81.1656C63.6532 81.1656 66.6628 78.4063 66.983 74.7468C67.3406 70.6584 64.113 67.1027 59.9747 67.1027V67.1027ZM17.5781 7.31781H3.51562C1.57406 7.31781 0 8.89187 0 10.8334C0 12.775 1.57406 14.3491 3.51562 14.3491H17.5781C19.5197 14.3491 21.0938 12.775 21.0938 10.8334C21.0938 8.89187 19.5197 7.31781 17.5781 7.31781ZM102.422 14.3491H105.938V17.8647C105.938 19.8062 107.512 21.3803 109.453 21.3803C111.395 21.3803 112.969 19.8062 112.969 17.8647V14.3491H116.484C118.426 14.3491 120 12.775 120 10.8334C120 8.89187 118.426 7.31781 116.484 7.31781H112.969V3.80219C112.969 1.86062 111.395 0.28656 109.453 0.28656C107.512 0.28656 105.938 1.86062 105.938 3.80219V7.31781H102.422C100.48 7.31781 98.9062 8.89187 98.9062 10.8334C98.9062 12.775 100.48 14.3491 102.422 14.3491Z" fill="url(#paint0_linear_1_819)"/>
<path d="M82.3596 51.7539L90.9375 43.1762L102.261 31.8527C90.9715 20.5652 75.9625 14.3491 60 14.3491C29.909 14.3491 4.41443 36.8329 0.69724 66.6484C0.572552 67.649 0.883334 68.6547 1.5506 69.4103C2.21786 70.1659 3.17763 70.5988 4.18591 70.5988H25.5492C27.2201 70.5988 28.66 69.4227 28.994 67.7854C31.984 53.1191 45.0239 42.4741 60 42.4741C68.4368 42.4741 76.3776 45.7696 82.3596 51.7539ZM88.6671 53.5113L73.1318 62.4805C70.1367 59.0957 66.0304 57.0182 61.5105 56.6228C51.8327 55.776 43.3141 62.9226 42.4673 72.602C42.2538 75.0421 42.5472 77.448 43.301 79.7034L39.9588 81.633C36.8559 83.4245 38.1295 88.1938 41.7199 88.1938C43.2328 88.1938 43.8621 87.3688 46.8253 85.7877C49.8204 89.1726 53.9266 91.2501 58.4463 91.6455C68.1234 92.4927 76.6427 85.3457 77.4895 75.6662C77.703 73.2262 77.4096 70.8203 76.6558 68.5649L92.1825 59.6005C93.8639 58.6298 94.44 56.4796 93.4692 54.7982C92.4989 53.1168 90.3485 52.5407 88.6671 53.5113V53.5113ZM63.4809 74.4405C63.3117 76.3748 61.6066 77.8056 59.6723 77.6364C57.738 77.4672 56.3072 75.7619 56.4764 73.8278C56.6456 71.8935 58.3507 70.4627 60.285 70.6319C62.2193 70.8011 63.6501 72.5064 63.4809 74.4405V74.4405Z" fill="url(#paint1_linear_1_819)"/>
<defs>
<linearGradient id="paint0_linear_1_819" x1="60" y1="81.1656" x2="60" y2="0.28656" gradientUnits="userSpaceOnUse">
<stop stop-color="#C3FFE8"/>
<stop offset="0.9973" stop-color="#F0FFF4"/>
</linearGradient>
<linearGradient id="paint1_linear_1_819" x1="51.4659" y1="91.7134" x2="51.4659" y2="14.3491" gradientUnits="userSpaceOnUse">
<stop stop-color="#00B59C"/>
<stop offset="1" stop-color="#9CFFAC"/>
</linearGradient>
</defs>
</svg>
