<svg width="1918" height="574" viewBox="0 0 1918 574" fill="none" xmlns="http://www.w3.org/2000/svg">
<g opacity="0.4">
<path d="M1916.79 218.434L958.893 1.00086" stroke="#D0D0D0" stroke-width="2"/>
<path d="M1916.13 238.049L958.896 1.00061" stroke="#D0D0D0" stroke-width="2"/>
<path d="M1916.79 261.655L958.893 1.00093" stroke="#D0D0D0" stroke-width="2"/>
<path d="M1916.79 290.912L958.893 1.00074" stroke="#D0D0D0" stroke-width="2"/>
<path d="M1916.79 327.485L958.893 1.00266" stroke="#D0D0D0" stroke-width="2"/>
<path d="M1916.79 374.03L958.893 1.00227" stroke="#D0D0D0" stroke-width="2"/>
<path d="M1916.79 436.534L958.893 1.0026" stroke="#D0D0D0" stroke-width="2"/>
<path d="M1916.79 524.306L958.893 1.00378" stroke="#D0D0D0" stroke-width="2"/>
<path d="M1794.73 572.846L958.896 1.00391" stroke="#D0D0D0" stroke-width="2"/>
<path d="M1582.46 572.846L958.897 1.00393" stroke="#D0D0D0" stroke-width="2"/>
<path d="M1371.51 572.846L958.897 1.00395" stroke="#D0D0D0" stroke-width="2"/>
<path d="M1160.56 572.846L958.897 1.00396" stroke="#D0D0D0" stroke-width="2"/>
<path d="M950.934 572.846L958.894 1.00398" stroke="#D0D0D0" stroke-width="2"/>
<path d="M1.00003 218.434L958.896 1.00103" stroke="#D0D0D0" stroke-width="2"/>
<path d="M1.66068 238.049L958.893 1.00078" stroke="#D0D0D0" stroke-width="2"/>
<path d="M1.00003 261.655L958.896 1.0011" stroke="#D0D0D0" stroke-width="2"/>
<path d="M1.00003 290.911L958.896 0.999929" stroke="#D0D0D0" stroke-width="2"/>
<path d="M1.00003 327.485L958.896 1.00283" stroke="#D0D0D0" stroke-width="2"/>
<path d="M1.00003 374.03L958.896 1.00244" stroke="#D0D0D0" stroke-width="2"/>
<path d="M1 436.534L958.895 1.00277" stroke="#D0D0D0" stroke-width="2"/>
<path d="M1 524.305L958.896 1.00297" stroke="#D0D0D0" stroke-width="2"/>
<path d="M123.056 572.845L958.893 1.00283" stroke="#D0D0D0" stroke-width="2"/>
<path d="M335.336 572.845L958.897 1.00282" stroke="#D0D0D0" stroke-width="2"/>
<path d="M546.281 572.846L958.892 1.00402" stroke="#D0D0D0" stroke-width="2"/>
<path d="M757.23 572.846L958.892 1.004" stroke="#D0D0D0" stroke-width="2"/>
<path d="M1916.79 503.028L6.30498 503.028" stroke="#D0D0D0" stroke-width="2"/>
<path d="M1916.79 447.839L6.30498 447.838" stroke="#D0D0D0" stroke-width="2"/>
<path d="M1916.79 402.622L6.30498 402.622" stroke="#D0D0D0" stroke-width="2"/>
<path d="M1916.79 366.716L6.30498 366.716" stroke="#D0D0D0" stroke-width="2"/>
<path d="M1916.79 336.129L6.30498 336.129" stroke="#D0D0D0" stroke-width="2"/>
<path d="M1916.79 310.86L6.30498 310.86" stroke="#D0D0D0" stroke-width="2"/>
<path d="M1916.79 288.917L6.30498 288.916" stroke="#D0D0D0" stroke-width="2"/>
<path d="M1916.79 269.632L6.30498 269.632" stroke="#D0D0D0" stroke-width="2"/>
<path d="M1916.79 252.345L6.30498 252.345" stroke="#D0D0D0" stroke-width="2"/>
<path d="M1916.79 237.717L6.30498 237.717" stroke="#D0D0D0" stroke-width="2"/>
<path d="M1916.79 225.083L6.30498 225.082" stroke="#D0D0D0" stroke-width="2"/>
<path d="M1916.79 213.115L6.30498 213.115" stroke="#D0D0D0" stroke-width="2"/>
</g>
<rect x="1918" y="574" width="1918" height="574" transform="rotate(180 1917 571)" fill="url(#paint0_linear_1755_15)"/>
<defs>
<linearGradient id="paint0_linear_1755_15" x1="2874.3" y1="571" x2="2874.3" y2="1056.58" gradientUnits="userSpaceOnUse">
<stop stop-color="#121212" stop-opacity="0"/>
<stop offset="0.0001" stop-color="#121212" stop-opacity="0"/>
<stop offset="0.581361" stop-color="#02030B"/>
</linearGradient>
</defs>
</svg>
