<svg width="1918" height="574" viewBox="0 0 1918 574" fill="none" xmlns="http://www.w3.org/2000/svg">
<path d="M1916.79 218.435L958.895 1.00135" stroke="#D0D0D0" stroke-width="2"/>
<path d="M1916.13 238.05L958.898 1.0011" stroke="#D0D0D0" stroke-width="2"/>
<path d="M1916.79 261.655L958.895 1.00142" stroke="#D0D0D0" stroke-width="2"/>
<path d="M1916.79 290.912L958.895 1.00123" stroke="#D0D0D0" stroke-width="2"/>
<path d="M1916.79 327.562L958.895 1.07932" stroke="#D0D0D0" stroke-width="2"/>
<path d="M1916.79 374.106L958.895 1.07893" stroke="#D0D0D0" stroke-width="2"/>
<path d="M1916.79 436.61L958.895 1.07902" stroke="#D0D0D0" stroke-width="2"/>
<path d="M1916.79 524.383L958.895 1.08019" stroke="#D0D0D0" stroke-width="2"/>
<path d="M1794.73 572.923L958.898 1.08033" stroke="#D0D0D0" stroke-width="2"/>
<path d="M1582.46 572.923L958.898 1.08034" stroke="#D0D0D0" stroke-width="2"/>
<path d="M1371.51 572.923L958.899 1.08036" stroke="#D0D0D0" stroke-width="2"/>
<path d="M1160.56 572.923L958.899 1.08038" stroke="#D0D0D0" stroke-width="2"/>
<path d="M950.936 572.923L958.897 1.0804" stroke="#D0D0D0" stroke-width="2"/>
<path d="M1 218.434L958.895 1.00127" stroke="#D0D0D0" stroke-width="2"/>
<path d="M1.66064 238.05L958.892 1.00102" stroke="#D0D0D0" stroke-width="2"/>
<path d="M1 261.655L958.895 1.00134" stroke="#D0D0D0" stroke-width="2"/>
<path d="M1 290.911L958.895 1.00017" stroke="#D0D0D0" stroke-width="2"/>
<path d="M1 327.562L958.895 1.07949" stroke="#D0D0D0" stroke-width="2"/>
<path d="M1 374.106L958.895 1.0791" stroke="#D0D0D0" stroke-width="2"/>
<path d="M1 436.61L958.895 1.07919" stroke="#D0D0D0" stroke-width="2"/>
<path d="M1 524.382L958.896 1.07938" stroke="#D0D0D0" stroke-width="2"/>
<path d="M123.057 572.922L958.893 1.07925" stroke="#D0D0D0" stroke-width="2"/>
<path d="M335.338 572.922L958.899 1.07923" stroke="#D0D0D0" stroke-width="2"/>
<path d="M546.282 572.923L958.894 1.08043" stroke="#D0D0D0" stroke-width="2"/>
<path d="M757.231 572.923L958.894 1.08042" stroke="#D0D0D0" stroke-width="2"/>
<path d="M1916.79 503.104L6.30693 503.104" stroke="#D0D0D0" stroke-width="2"/>
<path d="M1916.79 447.915L6.30693 447.915" stroke="#D0D0D0" stroke-width="2"/>
<path d="M1916.79 402.698L6.30693 402.698" stroke="#D0D0D0" stroke-width="2"/>
<path d="M1916.79 366.793L6.30693 366.793" stroke="#D0D0D0" stroke-width="2"/>
<path d="M1916.79 336.206L6.30693 336.206" stroke="#D0D0D0" stroke-width="2"/>
<path d="M1916.79 310.86L6.30693 310.86" stroke="#D0D0D0" stroke-width="2"/>
<path d="M1916.79 288.917L6.30693 288.917" stroke="#D0D0D0" stroke-width="2"/>
<path d="M1916.79 269.633L6.30693 269.633" stroke="#D0D0D0" stroke-width="2"/>
<path d="M1916.79 252.346L6.30693 252.346" stroke="#D0D0D0" stroke-width="2"/>
<path d="M1916.79 237.718L6.30693 237.718" stroke="#D0D0D0" stroke-width="2"/>
<path d="M1916.79 225.083L6.30693 225.083" stroke="#D0D0D0" stroke-width="2"/>
<path d="M1916.79 213.115L6.30693 213.115" stroke="#D0D0D0" stroke-width="2"/>
</svg>
